P2
# testimage_1_10.pgm
1 10
2

2
0
0
0
2
2
0
0
0
2
