P2
# testimage_3_2.pgm
3 2
5
3 4 5
0 1 2
